<svg width="72" height="36" viewBox="0 0 72 36" fill="none" xmlns="http://www.w3.org/2000/svg">
<rect width="72" height="36" rx="18" fill="#A4A4A4"/>
<circle cx="17.9999" cy="17.9999" r="13.32" fill="white"/>
<path d="M54.0007 13.5451C51.5457 13.5451 49.5455 15.5452 49.5455 18.0001C49.5455 20.455 51.5457 22.4551 54.0007 22.4551C56.4557 22.4551 58.4559 20.455 58.4559 18.0001C58.4559 15.5452 56.4557 13.5451 54.0007 13.5451ZM65.4357 17.2808L61.0409 15.0858L62.5955 10.4266C62.8044 9.79549 62.2057 9.19685 61.5792 9.41032L56.9198 10.9649L54.72 6.56562C54.423 5.97162 53.5784 5.97162 53.2814 6.56562L51.0862 10.9603L46.4222 9.40568C45.791 9.19685 45.1924 9.79549 45.4058 10.422L46.9605 15.0812L42.5656 17.2808C41.9716 17.5778 41.9716 18.4224 42.5656 18.7194L46.9605 20.9144L45.4058 25.5783C45.197 26.2094 45.7957 26.808 46.4222 26.5946L51.0816 25.0399L53.2767 29.4346C53.5737 30.0286 54.4184 30.0286 54.7154 29.4346L56.9105 25.0399L61.5699 26.5946C62.2011 26.8034 62.7997 26.2047 62.5863 25.5783L61.0316 20.9191L65.4265 18.7241C66.0298 18.4224 66.0298 17.5778 65.4357 17.2808ZM58.2007 22.1999C55.8849 24.5156 52.1165 24.5156 49.8007 22.1999C47.4849 19.8842 47.4849 16.116 49.8007 13.8004C52.1165 11.4847 55.8849 11.4847 58.2007 13.8004C60.5164 16.116 60.5164 19.8842 58.2007 22.1999Z" fill="white"/>
</svg>
